# This file uses meters as units for non-parametric coordinates.

mtllib KnightBright_Env_PaperPoster_01.mtl
g default
v 42.286125 0.000000 0.000000
v 42.286125 108.735748 0.000000
v -42.286125 0.000000 0.000000
v -42.286125 108.735748 0.000000
vt 1.000000 0.000000
vt 1.000000 1.000000
vt 0.000000 1.000000
vt 0.000000 0.000000
vn 0.000000 0.000000 1.000000
vn 0.000000 0.000000 1.000000
vn 0.000000 0.000000 1.000000
vn 0.000000 0.000000 1.000000
s off
g Paper
usemtl lambert11SG
f 1/1/1 2/2/2 4/3/3 3/4/4
