# This file uses meters as units for non-parametric coordinates.

mtllib KnightBright_SelectionArrow.mtl
g default
v -14.497223 28.994433 -25.109913
v 14.497210 28.994433 -25.109917
v 28.994433 28.994433 -0.000004
v 14.497216 28.994433 25.109915
v -14.497215 28.994433 25.109917
v -28.994433 28.994433 0.000000
v -0.000000 -28.994433 0.000000
v -9.771959 28.994433 -0.000001
v -4.885983 28.994433 -8.462768
v -4.885980 28.994433 8.462767
v 4.885981 28.994433 8.462767
v 9.771959 28.994433 -0.000002
v 4.885980 28.994433 -8.462769
v -18.060306 74.739548 -0.000000
v -9.030157 74.739548 -15.640679
v -9.030153 74.739548 15.640681
v 9.030154 74.739548 15.640679
v 18.060306 74.739548 -0.000003
v 9.030149 74.739548 -15.640685
vt 0.258196 0.750275
vt 0.325671 0.750275
vt 0.559536 0.794626
vt 0.207506 0.793496
vt 0.258196 0.488712
vt 0.139525 0.488712
vt 0.300186 0.199322
vt 0.684586 0.492425
vt 0.609451 0.492425
vt 0.490863 0.492425
vt 0.335338 0.488712
vt 0.325671 0.562753
vt 0.258196 0.562753
vt 0.559536 0.565997
vt 0.609451 0.565997
vt 0.676497 0.565997
vt 0.207506 0.562753
vt 0.609451 0.754972
vt 0.676497 0.754972
vt 0.383254 0.793496
vt 0.733768 0.794626
vt 0.733768 0.565996
vt 0.383254 0.562753
vt 0.809137 0.492425
vt 0.460475 0.488712
vt 0.649434 0.205374
vn 0.000000 1.000000 0.000000
vn 0.000000 1.000000 0.000000
vn 0.000000 1.000000 0.000000
vn 0.000000 1.000000 0.000000
vn -0.000000 -0.397360 -0.917663
vn -0.000000 -0.397360 -0.917663
vn -0.000000 -0.397360 -0.917663
vn 0.794719 -0.397360 -0.458832
vn 0.794719 -0.397360 -0.458832
vn 0.794719 -0.397360 -0.458832
vn 0.794719 -0.397360 0.458831
vn 0.794719 -0.397360 0.458831
vn 0.794719 -0.397360 0.458831
vn 0.000000 -0.397360 0.917663
vn 0.000000 -0.397360 0.917663
vn 0.000000 -0.397360 0.917663
vn -0.794719 -0.397360 0.458831
vn -0.794719 -0.397360 0.458831
vn -0.794719 -0.397360 0.458831
vn -0.794719 -0.397360 -0.458831
vn -0.794719 -0.397360 -0.458831
vn -0.794719 -0.397360 -0.458831
vn 0.000000 1.000000 -0.000000
vn 0.000000 1.000000 -0.000000
vn 0.000000 1.000000 -0.000000
vn 0.000000 1.000000 -0.000000
vn 0.000000 1.000000 0.000000
vn 0.000000 1.000000 0.000000
vn 0.000000 1.000000 0.000000
vn 0.000000 1.000000 0.000000
vn 0.000000 1.000000 -0.000000
vn 0.000000 1.000000 -0.000000
vn 0.000000 1.000000 -0.000000
vn 0.000000 1.000000 -0.000000
vn 0.000000 1.000000 0.000000
vn 0.000000 1.000000 0.000000
vn 0.000000 1.000000 0.000000
vn 0.000000 1.000000 0.000000
vn 0.000000 1.000000 0.000000
vn 0.000000 1.000000 0.000000
vn 0.000000 1.000000 0.000000
vn 0.000000 1.000000 0.000000
vn 0.000000 1.000000 -0.000000
vn 0.000000 1.000000 -0.000000
vn 0.000000 1.000000 -0.000000
vn 0.000000 1.000000 -0.000000
vn -0.855557 -0.155014 -0.493956
vn -0.855557 -0.155014 -0.493956
vn -0.855557 -0.155014 -0.493956
vn -0.855557 -0.155014 -0.493956
vn -0.855557 -0.155014 0.493956
vn -0.855557 -0.155014 0.493956
vn -0.855557 -0.155014 0.493956
vn -0.855557 -0.155014 0.493956
vn 0.000000 -0.155014 0.987912
vn 0.000000 -0.155014 0.987912
vn 0.000000 -0.155014 0.987912
vn 0.000000 -0.155014 0.987912
vn 0.855557 -0.155014 0.493956
vn 0.855557 -0.155014 0.493956
vn 0.855557 -0.155014 0.493956
vn 0.855557 -0.155014 0.493956
vn 0.855557 -0.155014 -0.493956
vn 0.855557 -0.155014 -0.493956
vn 0.855557 -0.155014 -0.493956
vn 0.855557 -0.155014 -0.493956
vn -0.000000 -0.155014 -0.987912
vn -0.000000 -0.155014 -0.987912
vn -0.000000 -0.155014 -0.987912
vn -0.000000 -0.155014 -0.987912
vn 0.000000 1.000000 0.000000
vn 0.000000 1.000000 0.000000
s 1
g SelectionArrow
usemtl initialShadingGroup
f 15/1/1 14/2/2 16/20/3 19/4/4
s off
f 1/5/5 2/6/6 7/7/7
f 2/24/8 3/8/9 7/26/10
f 3/8/11 4/9/12 7/26/13
f 4/9/14 5/10/15 7/26/16
f 5/25/17 6/11/18 7/7/19
f 6/11/20 1/5/21 7/7/22
f 1/5/23 6/11/24 8/12/25 9/13/26
f 6/11/27 5/25/28 10/23/29 8/12/30
f 5/10/31 4/9/32 11/15/33 10/14/34
f 4/9/35 3/8/36 12/16/37 11/15/38
f 3/8/39 2/24/40 13/22/41 12/16/42
f 2/6/43 1/5/44 9/13/45 13/17/46
f 9/13/47 8/12/48 14/2/49 15/1/50
f 8/12/51 10/23/52 16/20/53 14/2/54
f 10/14/55 11/15/56 17/18/57 16/3/58
f 11/15/59 12/16/60 18/19/61 17/18/62
f 12/16/63 13/22/64 19/21/65 18/19/66
f 13/17/67 9/13/68 15/1/69 19/4/70
s 1
f 19/21/4 16/3/3 17/18/71 18/19/72
